<mxfile host="app.diagrams.net" agent="Mozilla/5.0 (Windows NT 10.0; Win64; x64; rv:132.0) Gecko/20100101 Firefox/132.0" version="24.8.6">
  <diagram name="Page-1" id="oiUyBhWRzTW6xyhtn9rt">
    <mxGraphModel dx="989" dy="520" grid="1" gridSize="10" guides="1" tooltips="1" connect="1" arrows="1" fold="1" page="1" pageScale="1" pageWidth="850" pageHeight="1100" math="0" shadow="0">
      <root>
        <mxCell id="0" />
        <mxCell id="1" parent="0" />
        <mxCell id="I1X1ROTcHiEnxLeAN1pk-7" style="edgeStyle=orthogonalEdgeStyle;rounded=0;orthogonalLoop=1;jettySize=auto;html=1;exitX=1;exitY=0.3333333333333333;exitDx=0;exitDy=0;exitPerimeter=0;" edge="1" parent="1" source="I1X1ROTcHiEnxLeAN1pk-1" target="I1X1ROTcHiEnxLeAN1pk-4">
          <mxGeometry relative="1" as="geometry" />
        </mxCell>
        <mxCell id="I1X1ROTcHiEnxLeAN1pk-30" style="edgeStyle=orthogonalEdgeStyle;rounded=0;orthogonalLoop=1;jettySize=auto;html=1;exitX=1;exitY=0.3333333333333333;exitDx=0;exitDy=0;exitPerimeter=0;entryX=0.5;entryY=0;entryDx=0;entryDy=0;" edge="1" parent="1" source="I1X1ROTcHiEnxLeAN1pk-1" target="I1X1ROTcHiEnxLeAN1pk-9">
          <mxGeometry relative="1" as="geometry" />
        </mxCell>
        <mxCell id="I1X1ROTcHiEnxLeAN1pk-31" style="edgeStyle=orthogonalEdgeStyle;rounded=0;orthogonalLoop=1;jettySize=auto;html=1;exitX=1;exitY=0.3333333333333333;exitDx=0;exitDy=0;exitPerimeter=0;entryX=0.5;entryY=0;entryDx=0;entryDy=0;" edge="1" parent="1" source="I1X1ROTcHiEnxLeAN1pk-1" target="I1X1ROTcHiEnxLeAN1pk-25">
          <mxGeometry relative="1" as="geometry" />
        </mxCell>
        <mxCell id="I1X1ROTcHiEnxLeAN1pk-1" value="Admin" style="shape=umlActor;verticalLabelPosition=bottom;verticalAlign=top;html=1;outlineConnect=0;" vertex="1" parent="1">
          <mxGeometry x="60" y="140" width="30" height="60" as="geometry" />
        </mxCell>
        <mxCell id="I1X1ROTcHiEnxLeAN1pk-15" style="edgeStyle=orthogonalEdgeStyle;rounded=0;orthogonalLoop=1;jettySize=auto;html=1;exitX=1;exitY=0.3333333333333333;exitDx=0;exitDy=0;exitPerimeter=0;entryX=0.5;entryY=1;entryDx=0;entryDy=0;" edge="1" parent="1" source="I1X1ROTcHiEnxLeAN1pk-2" target="I1X1ROTcHiEnxLeAN1pk-14">
          <mxGeometry relative="1" as="geometry" />
        </mxCell>
        <mxCell id="I1X1ROTcHiEnxLeAN1pk-36" style="edgeStyle=orthogonalEdgeStyle;rounded=0;orthogonalLoop=1;jettySize=auto;html=1;exitX=1;exitY=0.3333333333333333;exitDx=0;exitDy=0;exitPerimeter=0;entryX=0;entryY=0.5;entryDx=0;entryDy=0;" edge="1" parent="1" source="I1X1ROTcHiEnxLeAN1pk-2" target="I1X1ROTcHiEnxLeAN1pk-35">
          <mxGeometry relative="1" as="geometry" />
        </mxCell>
        <mxCell id="I1X1ROTcHiEnxLeAN1pk-2" value="&lt;div&gt;User&lt;/div&gt;&lt;div&gt;&lt;br&gt;&lt;/div&gt;" style="shape=umlActor;verticalLabelPosition=bottom;verticalAlign=top;html=1;outlineConnect=0;" vertex="1" parent="1">
          <mxGeometry x="60" y="460" width="30" height="60" as="geometry" />
        </mxCell>
        <mxCell id="I1X1ROTcHiEnxLeAN1pk-8" style="edgeStyle=orthogonalEdgeStyle;rounded=0;orthogonalLoop=1;jettySize=auto;html=1;entryX=0.5;entryY=1;entryDx=0;entryDy=0;" edge="1" parent="1" target="I1X1ROTcHiEnxLeAN1pk-4">
          <mxGeometry relative="1" as="geometry">
            <mxPoint x="690" y="500" as="sourcePoint" />
            <Array as="points">
              <mxPoint x="715" y="500" />
              <mxPoint x="240" y="500" />
            </Array>
          </mxGeometry>
        </mxCell>
        <mxCell id="I1X1ROTcHiEnxLeAN1pk-29" style="edgeStyle=orthogonalEdgeStyle;rounded=0;orthogonalLoop=1;jettySize=auto;html=1;exitX=0;exitY=0.3333333333333333;exitDx=0;exitDy=0;exitPerimeter=0;entryX=0.5;entryY=1;entryDx=0;entryDy=0;" edge="1" parent="1" source="I1X1ROTcHiEnxLeAN1pk-3" target="I1X1ROTcHiEnxLeAN1pk-28">
          <mxGeometry relative="1" as="geometry" />
        </mxCell>
        <mxCell id="I1X1ROTcHiEnxLeAN1pk-3" value="&lt;div&gt;Curier&lt;/div&gt;&lt;div&gt;&lt;br&gt;&lt;/div&gt;" style="shape=umlActor;verticalLabelPosition=bottom;verticalAlign=top;html=1;outlineConnect=0;" vertex="1" parent="1">
          <mxGeometry x="710" y="480" width="30" height="60" as="geometry" />
        </mxCell>
        <mxCell id="I1X1ROTcHiEnxLeAN1pk-4" value="Login/Logout" style="ellipse;whiteSpace=wrap;html=1;" vertex="1" parent="1">
          <mxGeometry x="200" y="420" width="80" height="50" as="geometry" />
        </mxCell>
        <mxCell id="I1X1ROTcHiEnxLeAN1pk-6" style="edgeStyle=orthogonalEdgeStyle;rounded=0;orthogonalLoop=1;jettySize=auto;html=1;exitX=1;exitY=0.3333333333333333;exitDx=0;exitDy=0;exitPerimeter=0;entryX=0;entryY=0.4;entryDx=0;entryDy=0;entryPerimeter=0;" edge="1" parent="1" source="I1X1ROTcHiEnxLeAN1pk-2" target="I1X1ROTcHiEnxLeAN1pk-4">
          <mxGeometry relative="1" as="geometry" />
        </mxCell>
        <mxCell id="I1X1ROTcHiEnxLeAN1pk-13" style="edgeStyle=orthogonalEdgeStyle;rounded=0;orthogonalLoop=1;jettySize=auto;html=1;exitX=1;exitY=0.5;exitDx=0;exitDy=0;entryX=0;entryY=0.5;entryDx=0;entryDy=0;" edge="1" parent="1" source="I1X1ROTcHiEnxLeAN1pk-9" target="I1X1ROTcHiEnxLeAN1pk-12">
          <mxGeometry relative="1" as="geometry" />
        </mxCell>
        <mxCell id="I1X1ROTcHiEnxLeAN1pk-9" value="Vizualizare lista farmacii" style="ellipse;whiteSpace=wrap;html=1;" vertex="1" parent="1">
          <mxGeometry x="110" y="290" width="80" height="50" as="geometry" />
        </mxCell>
        <mxCell id="I1X1ROTcHiEnxLeAN1pk-12" value="Vizualizare produse din farmacie" style="ellipse;whiteSpace=wrap;html=1;" vertex="1" parent="1">
          <mxGeometry x="260" y="290" width="80" height="50" as="geometry" />
        </mxCell>
        <mxCell id="I1X1ROTcHiEnxLeAN1pk-14" value="Adauga produse in cos" style="ellipse;whiteSpace=wrap;html=1;" vertex="1" parent="1">
          <mxGeometry x="340" y="380" width="80" height="50" as="geometry" />
        </mxCell>
        <mxCell id="I1X1ROTcHiEnxLeAN1pk-16" style="edgeStyle=orthogonalEdgeStyle;rounded=0;orthogonalLoop=1;jettySize=auto;html=1;exitX=0;exitY=0.5;exitDx=0;exitDy=0;entryX=0.625;entryY=1;entryDx=0;entryDy=0;entryPerimeter=0;dashed=1;" edge="1" parent="1" source="I1X1ROTcHiEnxLeAN1pk-14" target="I1X1ROTcHiEnxLeAN1pk-9">
          <mxGeometry relative="1" as="geometry" />
        </mxCell>
        <mxCell id="I1X1ROTcHiEnxLeAN1pk-17" value="&amp;lt;&amp;lt;include&amp;gt;&amp;gt;" style="edgeLabel;html=1;align=center;verticalAlign=middle;resizable=0;points=[];" vertex="1" connectable="0" parent="I1X1ROTcHiEnxLeAN1pk-16">
          <mxGeometry x="-0.2735" y="-2" relative="1" as="geometry">
            <mxPoint x="39" y="-3" as="offset" />
          </mxGeometry>
        </mxCell>
        <mxCell id="I1X1ROTcHiEnxLeAN1pk-19" style="edgeStyle=orthogonalEdgeStyle;rounded=0;orthogonalLoop=1;jettySize=auto;html=1;exitX=0;exitY=0.5;exitDx=0;exitDy=0;entryX=1;entryY=0.5;entryDx=0;entryDy=0;dashed=1;" edge="1" parent="1" source="I1X1ROTcHiEnxLeAN1pk-18" target="I1X1ROTcHiEnxLeAN1pk-14">
          <mxGeometry relative="1" as="geometry" />
        </mxCell>
        <mxCell id="I1X1ROTcHiEnxLeAN1pk-20" value="&amp;lt;&amp;lt;extends&amp;gt;&amp;gt;" style="edgeLabel;html=1;align=center;verticalAlign=middle;resizable=0;points=[];" vertex="1" connectable="0" parent="I1X1ROTcHiEnxLeAN1pk-19">
          <mxGeometry x="0.0355" y="-2" relative="1" as="geometry">
            <mxPoint as="offset" />
          </mxGeometry>
        </mxCell>
        <mxCell id="I1X1ROTcHiEnxLeAN1pk-22" style="edgeStyle=orthogonalEdgeStyle;rounded=0;orthogonalLoop=1;jettySize=auto;html=1;exitX=0.5;exitY=0;exitDx=0;exitDy=0;entryX=0.5;entryY=1;entryDx=0;entryDy=0;" edge="1" parent="1" source="I1X1ROTcHiEnxLeAN1pk-18" target="I1X1ROTcHiEnxLeAN1pk-21">
          <mxGeometry relative="1" as="geometry" />
        </mxCell>
        <mxCell id="I1X1ROTcHiEnxLeAN1pk-18" value="Schimba cantitatea produselor in cos" style="ellipse;whiteSpace=wrap;html=1;" vertex="1" parent="1">
          <mxGeometry x="490" y="380" width="80" height="50" as="geometry" />
        </mxCell>
        <mxCell id="I1X1ROTcHiEnxLeAN1pk-24" style="edgeStyle=orthogonalEdgeStyle;rounded=0;orthogonalLoop=1;jettySize=auto;html=1;exitX=0.5;exitY=0;exitDx=0;exitDy=0;entryX=0.5;entryY=1;entryDx=0;entryDy=0;" edge="1" parent="1" source="I1X1ROTcHiEnxLeAN1pk-21" target="I1X1ROTcHiEnxLeAN1pk-23">
          <mxGeometry relative="1" as="geometry" />
        </mxCell>
        <mxCell id="I1X1ROTcHiEnxLeAN1pk-21" value="Finalizeaza comanda" style="ellipse;whiteSpace=wrap;html=1;" vertex="1" parent="1">
          <mxGeometry x="490" y="300" width="80" height="50" as="geometry" />
        </mxCell>
        <mxCell id="I1X1ROTcHiEnxLeAN1pk-23" value="Vede status comanda si detalii curier" style="ellipse;whiteSpace=wrap;html=1;" vertex="1" parent="1">
          <mxGeometry x="490" y="220" width="80" height="50" as="geometry" />
        </mxCell>
        <mxCell id="I1X1ROTcHiEnxLeAN1pk-26" style="edgeStyle=orthogonalEdgeStyle;rounded=0;orthogonalLoop=1;jettySize=auto;html=1;exitX=0.5;exitY=1;exitDx=0;exitDy=0;entryX=0.5;entryY=0;entryDx=0;entryDy=0;dashed=1;" edge="1" parent="1" source="I1X1ROTcHiEnxLeAN1pk-25" target="I1X1ROTcHiEnxLeAN1pk-12">
          <mxGeometry relative="1" as="geometry" />
        </mxCell>
        <mxCell id="I1X1ROTcHiEnxLeAN1pk-27" value="&amp;lt;&amp;lt;include&amp;gt;&amp;gt;" style="edgeLabel;html=1;align=center;verticalAlign=middle;resizable=0;points=[];" vertex="1" connectable="0" parent="I1X1ROTcHiEnxLeAN1pk-26">
          <mxGeometry x="-0.0345" relative="1" as="geometry">
            <mxPoint as="offset" />
          </mxGeometry>
        </mxCell>
        <mxCell id="I1X1ROTcHiEnxLeAN1pk-25" value="Adauga/scoate produse din stoc" style="ellipse;whiteSpace=wrap;html=1;" vertex="1" parent="1">
          <mxGeometry x="260" y="180" width="90" height="60" as="geometry" />
        </mxCell>
        <mxCell id="I1X1ROTcHiEnxLeAN1pk-33" style="edgeStyle=orthogonalEdgeStyle;rounded=0;orthogonalLoop=1;jettySize=auto;html=1;exitX=0.5;exitY=0;exitDx=0;exitDy=0;entryX=1;entryY=0.5;entryDx=0;entryDy=0;dashed=1;" edge="1" parent="1" source="I1X1ROTcHiEnxLeAN1pk-28" target="I1X1ROTcHiEnxLeAN1pk-23">
          <mxGeometry relative="1" as="geometry" />
        </mxCell>
        <mxCell id="I1X1ROTcHiEnxLeAN1pk-28" value="Modifica statusul comenzii" style="ellipse;whiteSpace=wrap;html=1;" vertex="1" parent="1">
          <mxGeometry x="680" y="380" width="80" height="50" as="geometry" />
        </mxCell>
        <mxCell id="I1X1ROTcHiEnxLeAN1pk-35" value="Vizualizeaza guide simptome" style="ellipse;whiteSpace=wrap;html=1;" vertex="1" parent="1">
          <mxGeometry x="200" y="530" width="80" height="50" as="geometry" />
        </mxCell>
      </root>
    </mxGraphModel>
  </diagram>
</mxfile>
